<?xml version="1.0" standalone="no"?>
<svg xmlns="http://www.w3.org/2000/svg" viewBox="0 0 159 69" width="159" height="69"><g fill="#ffb94c" color="#ffb94c" transform="translate(57.008 0) scale(0.34375) "><svg width="128.0" height="128.0" x="0.0" y="0.0" viewBox="0 0 128 128"><g><path d="M20,102c-1.1055145,0-2,0.8955002-2,2v11c0,1.1044998,0.8573837,2.2577972,1.9160004,2.5742035l6.1698837,2.1884995   C26.6151848,119.9208984,26.8085842,120,27.0020008,120c0.1932831,0,0.3866844-0.0791016,0.9159985-0.2372971l6.1660004-2.1884995   C35.1425858,117.2577972,36,116.1044998,36,115v-11c0-1.1044998-0.894516-2-2-2H20z M32,114.0692978l-4.9979992,1.7745056   L22,114.0692978V106h10V114.0692978z"></path><path d="M127.8710785,119.4365005l-9.5233994-25.2705002C121.2528839,90.5644989,123,85.9882965,123,81.0009995   C123,69.4013977,113.5985794,60,102,60c-11.5986176,0-21,9.4013977-21,21.0009995   c0,4.9872971,1.7470856,9.5634995,4.6522827,13.1650009l-9.5233994,25.2705002   c-0.2900009,0.7686005-0.080101,1.6366959,0.5292969,2.1875c0.610405,0.552803,1.4932022,0.6728973,2.2294998,0.3096008   l8.7294998-4.3223038l2.8486023,8.9922028c0.2588043,0.819397,1.0127029,1.381897,1.8721008,1.3964996   c0.0117035,0,0.0233994,0,0.0342026,0c0.8456955,0,1.6014938-0.5322037,1.884697-1.3320007L102,104.8192978l7.7431793,21.8487015   C110.0263824,127.4677963,110.7821808,128,111.6278839,128c0.0107956,0,0.0224991,0,0.0341949,0   c0.8594055-0.0146027,1.6133041-0.5771027,1.8721008-1.3964996l2.8486023-8.9922028l8.7294998,4.3223038   c0.7362976,0.3632965,1.6221008,0.2432022,2.2294998-0.3096008   C127.9511795,121.0731964,128.161087,120.205101,127.8710785,119.4365005z M102,64c9.3740005,0,17,7.6269989,17,17.0009995   C119,90.3740005,111.3740005,98,102,98s-17-7.6259995-17-16.9990005C85,71.6269989,92.6259995,64,102,64z M92.4784851,119.7128983   l-1.7528992-5.532196c-0.1758041-0.5567017-0.5860062-1.0088043-1.1231003-1.2373047   c-0.2509003-0.1064987-0.5174866-0.1591949-0.7832031-0.1591949c-0.3047028,0-0.6083984,0.0692978-0.8877029,0.2080002   l-6.2705002,3.1044998L88.75,97.285202c2.8417816,2.3153992,6.3065796,3.8807983,10.0985794,4.4530945L92.4784851,119.7128983z    M116.0683823,112.9922028c-0.5234985-0.2598038-1.131897-0.2774048-1.6708984-0.0488052   c-0.5371017,0.2285004-0.9473038,0.680603-1.1231003,1.2373047l-1.7528992,5.532196l-6.3701019-17.9746017   c3.7919998-0.5722961,7.2567978-2.1376953,10.0986176-4.4530945l7.0888824,18.8115005L116.0683823,112.9922028z"></path><path d="M95.3622818,84.160202l-0.9003983,5.5174942c-0.1240005,0.7559052,0.1952972,1.5157013,0.8212967,1.9571075   C95.6278839,91.8769989,96.0312805,92,96.4354858,92c0.3320999,0,0.6651001-0.0830002,0.9677963-0.25L102,89.2099991   L106.5966797,91.75c0.6728058,0.3711014,1.4951019,0.3262024,2.1201019-0.1151962   c0.6259995-0.4414063,0.9452972-1.2012024,0.8213043-1.9580002l-0.9024048-5.5166016l3.7958984-3.8877029   c0.5235062-0.5371017,0.7032013-1.3212967,0.4649048-2.0323029c-0.2383041-0.7108994-0.8534851-1.2294998-1.5947037-1.3426971   l-5.1641006-0.7881012l-2.3271942-4.9589996C103.4813843,70.4481964,102.775383,70,102,70   c-0.7754211,0-1.4805145,0.4481964-1.8105164,1.1493988l-2.3282013,4.9599991l-5.1631012,0.7890015   c-0.7411804,0.1122971-1.3563995,0.6308975-1.594696,1.3417969c-0.2383041,0.7110062-0.0586014,1.4952011,0.4648972,2.0313034   L95.3622818,84.160202z M99.5194855,79.9013977c0.6591949-0.1006012,1.2255936-0.5224991,1.5087967-1.1259995l0.9707184-2.0683975   l0.9706802,2.0673981c0.2832031,0.6035004,0.8487015,1.0263977,1.5088043,1.1278992l2.3710938,0.3614044l-1.782196,1.8251953   c-0.4433823,0.4550018-0.6445007,1.0937042-0.5419998,1.7207031l0.4003983,2.447197l-1.9580002-1.0820007   c-0.6035004-0.3339996-1.3320999-0.3339996-1.9356003,0l-1.9589996,1.0820007l0.399498-2.4481964   c0.1025009-0.6269989-0.0986786-1.2647018-0.5419998-1.7188034l-1.7812958-1.8260956L99.5194855,79.9013977z"></path><path d="M76.8690796,83.339798l-9.3963928,13.4346008l-3.8702049-6.3544998l-0.1581993-0.259697l-0.195282-0.2333984   c-0.3066177-0.365303-0.3301163-1.0850067-0.0791168-1.5205002l10.6337967-8.8731003l1.4649048,1.6181946l0.3515015,0.3877029   l0.4403992,0.2851028l0.7382965,0.4784927c-0.0028992-0.0653992-0.0038986-0.1317978-0.007782-0.197197   c0.0009995,0.0009003,0.0009995,0.0009003,0.0009995,0.0009003C76.775383,81.7382965,76.75,81.3730011,76.75,81.0009995   c0-0.6582031,0.0331802-1.3076019,0.0830002-1.9531021c0.0058823-0.0664978,0.0097809-0.1328964,0.0146866-0.1982956   c0.0067978-0.073204,0.0184937-0.1455002,0.0253143-0.2187042c0.0556793-0.5966949,0.1259995-1.1904984,0.2226791-1.7753983   c0.0009995-0.0009995,0.0009995-0.0029984,0.0009995-0.0048981c-1.5155945-1.7343979-2.6083984-3.610405-3.3671951-5.1923981   c5.3241959-6.2509995,9.0410004-14.7378044,11.0849991-22.3452034c0.5205154-1.9375,0.8631973-3.9346008,1.0410004-5.9429016   c0.8680954-1.1923981,1.4403992-2.6229973,1.4403992-3.8485985c0-2.0191002,1.1356964-5.0663986,2.5243988-6.7729988   l3.655304-4.4922009c1.3886948-1.7064991,1.6532974-4.6777,0.5888977-6.6030006l-3.9628983-7.1664991   c-1.0644989-1.9253006-3.6328049-4.0995998-5.7080002-4.8315001L60.8065834,1.3311   C59.785183,0.9707,58.445282,0.791,57.1005821,0.791c-1.3857994,0.0005-2.7773972,0.1914-3.827198,0.5718l-24.3915997,8.8403006   c-2.0683002,0.7494993-4.6103001,2.9496994-5.6494007,4.8892002l-3.3436985,6.2451   c-1.0391006,1.9394989-0.6631012,4.8446999,0.8348999,6.4561005l5.0341988,5.4159985   c1.4981003,1.6113014,2.7236004,4.6376991,2.7236004,6.7251015c0,1.2777977,0.6534004,2.5918007,1.6436157,3.5580978   c0.698185,9.5879021,4.6044846,20.5673981,10.4384842,27.8569031c-1.1767998,2.5468979-3.2714844,5.9901962-6.6366997,8.3086014   l-0.5245018,0.3388977c-1.4579983,0.9169998-3.1307983,1.6278992-5.0643978,1.9657974   c0,0-26.8769989,4.2060013-28.1884995,24.2275009c0,0-0.6387,1.7481003,0.7197,14.2266006   C1.3251851,124.6122971,5.3114848,128,9.6415844,128h40.169899l-1.1601028-0.8496017   c-1.1181984-0.8173981-2-1.9189987-2.6259995-3.1503983H9.6415844c-2.3222995,0-4.5634995-1.8759995-4.7958994-4.0156021   c-0.9844-9.0429993-0.8682001-12.0663986-0.8095999-12.7753983l0.0674-0.1846008l0.0370998-0.5722961   c0.4218998-6.4453049,4.2451-10.9716034,8.7665997-14.1082993l1.335,2.3759003   c1.1698999,2.0829926,3.3760004,3.2880936,5.6338148,3.2880936c0.8651848,0,1.7382851-0.1766968,2.5634842-0.5487976   l2.9931011-1.3516006c2.9892998-1.3506012,4.3710995-4.9365005,3.0800991-7.9930954l-0.8212986-1.9454041   C28.4589996,86,28.9247837,85.919899,28.9560852,85.9150009l0.0360985-0.0057983l0.0351009-0.0059052   c1.5039997-0.2626953,2.8808994-0.6932983,4.1435986-1.2460938l10.785202,15.4208984   C44.5438843,101.3467026,45.4755821,102,46.4647827,102c0.7910995,0,1.6202164-0.4179993,2.3389015-1.2733994l2.0546989-3.3731003   l1.3887024,2.455101l-3.160202,19.1923981c-0.3680992,1.7714996,0.4365005,3.8320007,1.9286995,4.9227982l4.7442017,3.4756012   c0.4530983,0.3526001,1.1240005,0.6054993,1.8280983,0.6054993c0.5966988,0,1.2178001-0.1817017,1.75-0.6366959   l4.7041168-3.4444046c1.4950867-1.0966949,2.2743835-3.2285004,1.8320007-4.9872971l-3.9414177-19.0410004l1.3057022-2.3837967   l1.9579964,3.2148972C65.9150009,101.5820007,66.7440796,102,67.5351868,102c0.9891968,0,1.9208984-0.6532974,2.5086975-1.9218979   l7.9288025-11.3379059C77.4150009,87.0137024,77.0419998,85.205101,76.8690796,83.339798z M24.8270836,89.669899   c0.4542007,1.0752029-0.0125999,2.3272018-1.0409985,2.7910004L20.7929993,93.8125   c-1.0694141,0.4833984-2.4727154,0-3.0645142-1.0518036l-1.3973999-2.4872971   c2.6346989-1.3885956,5.2743988-2.3797989,7.4589157-3.0605011L24.8270836,89.669899z M60.2812843,85.607399   C59.9150009,86.0195007,59.6415825,86.4961014,59.4315834,87h-4.8632011   c-0.2099991-0.5038986-0.4833832-0.9804993-0.8495979-1.392601l-11.2509995-9.3885956   c0.3740005-0.5987015,0.7098999-1.1865997,1.0107002-1.7559052C47.5038834,78.0361023,52.5683823,80,57.6230011,80   c4.3046837,0,8.5996857-1.4188995,12.2353821-4.4677963c0.3173981-0.2656021,0.6240005-0.5508041,0.9326172-0.8330002   c0.2548828,0.4716949,0.5273819,0.9521942,0.8320007,1.4433975L60.2812843,85.607399z M67.2880859,72.4677963   C64.5321808,74.7782974,61.1903839,76,57.6230011,76c-4.9824181,0-9.8310013-2.3192978-13.3027153-6.3622971   c-5.0410004-5.8706017-8.9004021-15.5000038-9.9922028-24.3296013c3.8574028,0.8969994,12.892601,2.6923981,23.4384995,2.6923981   c0.25,0,0.5039024-0.0009995,0.7559013-0.0028992c13.2461014-0.108902,19.8476028-1.1567993,22.9295959-1.9234009   c-0.1385956,0.7354012-0.3045959,1.4692993-0.5009003,2.2006989   C78.1854858,58.5679016,73.0780869,67.6122971,67.2880859,72.4677963z M56.9647827,33.3623009   c-1.8768997-1.3008003-4.6376991-3.9873009-4.9365005-8.6553001l5.0928001-2.3061008l4.9023018,2.2793007   C62.0175819,26.7119007,61.2968826,30.3052006,56.9647827,33.3623009z M57.0644836,38   c2.2490005-1.2285004,3.9403992-2.596199,5.217701-4h22.2598152c-0.7686157,1.8535004-1.2461166,3.8408012-1.2461166,5.5214996   c-0.0028839,0.5068016-0.655304,1.7230988-1.3769989,2.2421989c-0.7646027,0.3076019-5.9403992,2.0903015-23.4286995,2.233902   c-0.2421837,0.0018997-0.4843025,0.0028992-0.7236023,0.0028992c-13.2929993,0-24.247097-3.0121994-24.3534966-3.0419998   c-0.4375-0.1226006-0.9071999-0.7431984-0.9317017-1.0238991c0-1.8482018-0.5722008-3.9956017-1.4902-5.9346008h20.7705002   C54.2528839,36.8241997,57.0644836,38,57.0644836,38z M23.6532841,25.0697994   c-0.3348999-0.3598003-0.4706993-1.4105988-0.2382832-1.8442001l3.342783-6.2441998   c0.5781002-1.0780993,2.3379002-2.6009998,3.4873009-3.0174999l24.3915997-8.8403997   c0.4423981-0.1605997,1.3233147-0.3319998,2.464901-0.3325c1.0985985,0,1.947197,0.1616001,2.3739967,0.3120003L83.0634842,13.4277   c1.157196,0.4082003,2.9432983,1.9195004,3.5381012,2.9946995l3.9618988,7.1665001   c0.2762985,0.4990005,0.1688995,1.7007008-0.1904831,2.1429996L86.8993835,30H64.8905869   c1.8564987-4.3057003,0.8164139-8.0181007,0.8164139-8.0181007L57.1435852,18l-9.0557022,4.1000996   C47.7831841,25.2593002,48.3026848,27.8682003,49.2187843,30H28.235384L23.6532841,25.0697994z M46.5272827,96.7743988   L36.653286,82.6572037l1.2861977-0.8330002l0.4403992-0.2851028l0.3515015-0.3877029l1.464901-1.6181946l10.6337967,8.8731003   c0.2510033,0.4354935,0.2275009,1.1551971-0.0790825,1.5205002l-0.1953163,0.2333984l-0.1581993,0.259697L46.5272827,96.7743988z    M61.9950829,119.9141006c0.0449181,0.1845016-0.118084,0.6366959-0.3173981,0.7832031l-4.1494026,3.0389938l-4.1503983-3.0400009   c-0.2421989-0.176796-0.4150009-0.6933975-0.3740005-0.8817978L56.2694855,100h1.6005974l4.097702,19.7958984   L61.9950829,119.9141006z M59.5058823,96h-4.8173981l-1.4482994-2.5596008L53.8134842,92.5   c0.375-0.4462967,0.6512985-0.9589996,0.847599-1.5h4.6777992c0.1963005,0.5410004,0.4726028,1.0537033,0.8476028,1.5   l0.6513977,1.0692978L59.5058823,96z"></path></g></svg></g><path fill="#000000" fill-rule="nonzero" d="M6.24 12.96L6.24 12.96L6.24 11.64L7.92 11.64L7.92 12.96Q7.92 14.57 6.94 15.44Q5.95 16.32 3.98 16.32Q2.02 16.32 1.01 15.44Q0 14.57 0 12.96L0 12.96L0 3.36Q0 1.75 0.98 0.88Q1.97 0 3.94 0Q5.90 0 6.91 0.88Q7.92 1.75 7.92 3.36L7.92 3.36L7.92 5.64L6.24 5.64L6.24 3.36Q6.24 1.44 3.96 1.44Q1.68 1.44 1.68 3.36L1.68 3.36L1.68 12.96Q1.68 14.88 3.96 14.88Q6.24 14.88 6.24 12.96ZM19.75 12.96L19.75 12.96Q19.75 16.32 15.70 16.32Q11.64 16.32 11.64 12.96L11.64 12.96L11.64 10.92L13.32 10.92L13.32 13.06Q13.32 13.92 13.92 14.40Q14.52 14.88 15.70 14.88Q16.87 14.88 17.47 14.40Q18.07 13.92 18.07 13.09Q18.07 12.26 17.89 11.77Q17.71 11.28 17.16 10.73L17.16 10.73L12.94 6.60Q12.19 5.86 11.92 5.15Q11.64 4.44 11.64 3.36L11.64 3.36Q11.64 1.75 12.64 0.88Q13.63 0 15.65 0L15.65 0Q19.51 0 19.51 3.36L19.51 3.36L19.51 5.40L17.83 5.40L17.83 3.26Q17.83 2.40 17.27 1.92Q16.70 1.44 15.58 1.44Q14.45 1.44 13.88 1.92Q13.32 2.40 13.32 3.24Q13.32 4.08 13.49 4.56Q13.66 5.04 14.23 5.57L14.23 5.57L18.53 9.70Q19.22 10.46 19.49 11.17Q19.75 11.88 19.75 12.96ZM29.95 9.48L27.26 9.48L27.26 8.04L31.63 8.04L31.63 15.96L30.91 15.96L30.29 14.42Q29.78 15.29 28.97 15.80Q28.15 16.32 27.19 16.32L27.19 16.32Q23.71 16.32 23.71 12.96L23.71 12.96L23.71 3.36Q23.71 1.75 24.70 0.88Q25.68 0 27.65 0Q29.62 0 30.62 0.88Q31.63 1.75 31.63 3.36L31.63 3.36L31.63 4.68L29.95 4.68L29.95 3.36Q29.95 1.44 27.67 1.44Q25.39 1.44 25.39 3.36L25.39 3.36L25.39 12.96Q25.39 13.87 25.78 14.38Q26.16 14.88 27.18 14.88Q28.20 14.88 29.08 14.06Q29.95 13.25 29.95 12.48L29.95 12.48L29.95 9.48ZM43.87 3.36L43.87 3.36L43.87 12.96Q43.87 14.57 42.85 15.44Q41.83 16.32 39.80 16.32Q37.78 16.32 36.74 15.44Q35.71 14.57 35.71 12.96L35.71 12.96L35.71 3.36Q35.71 1.75 36.73 0.88Q37.75 0 39.78 0Q41.81 0 42.84 0.88Q43.87 1.75 43.87 3.36ZM42.19 12.96L42.19 12.96L42.19 3.36Q42.19 1.44 39.79 1.44Q37.39 1.44 37.39 3.36L37.39 3.36L37.39 12.96Q37.39 14.88 39.79 14.88Q42.19 14.88 42.19 12.96ZM55.39 8.76L48.19 8.76L48.19 7.32L55.39 7.32L55.39 8.76ZM58.39 0.36L66.31 0.36L66.31 1.80L63.19 1.80L63.19 15.96L61.51 15.96L61.51 1.80L58.39 1.80L58.39 0.36ZM71.11 10.44L71.11 15.96L69.43 15.96L69.43 0.36L73.06 0.36Q74.93 0.36 75.90 1.25Q76.87 2.14 76.87 3.72L76.87 3.72L76.87 7.08Q76.87 9.53 74.76 10.20L74.76 10.20L77.71 15.96L75.86 15.96L73.06 10.44L71.11 10.44ZM75.19 7.08L75.19 7.08L75.19 3.72Q75.19 2.81 74.64 2.30Q74.09 1.80 73.06 1.80L73.06 1.80L71.11 1.80L71.11 9L73.06 9Q75.19 9 75.19 7.08ZM79.63 15.96L83.16 0.36L85.68 0.36L89.21 15.96L87.53 15.96L86.71 12.36L82.13 12.36L81.31 15.96L79.63 15.96ZM86.38 10.92L84.41 2.23L82.44 10.92L86.38 10.92ZM96.43 15.96L96.43 15.96L92.57 15.96L92.57 0.36L96.43 0.36Q98.30 0.36 99.28 1.25Q100.25 2.14 100.25 3.72L100.25 3.72L100.25 12.60Q100.25 14.21 99.29 15.08Q98.33 15.96 96.43 15.96ZM98.57 12.60L98.57 12.60L98.57 3.72Q98.57 2.95 98.00 2.38Q97.44 1.80 96.43 1.80L96.43 1.80L94.25 1.80L94.25 14.52L96.43 14.52Q97.44 14.52 98.00 13.96Q98.57 13.39 98.57 12.60ZM111.77 14.52L111.77 15.96L104.69 15.96L104.69 0.36L111.53 0.36L111.53 1.80L106.37 1.80L106.37 7.32L110.57 7.32L110.57 8.76L106.37 8.76L106.37 14.52L111.77 14.52ZM115.37 15.96L115.37 0.36L118.99 0.36Q120.86 0.36 121.84 1.25Q122.81 2.14 122.81 3.72L122.81 3.72L122.81 5.16Q122.81 7.20 121.10 7.78L121.10 7.78Q123.05 8.30 123.05 10.44L123.05 10.44L123.05 12.60Q123.05 14.21 122.09 15.08Q121.13 15.96 119.23 15.96L119.23 15.96L115.37 15.96ZM121.37 12.60L121.37 12.60L121.37 10.44Q121.37 9.67 120.79 9.04Q120.22 8.40 119.23 8.40L119.23 8.40L117.05 8.40L117.05 14.52L119.23 14.52Q120.24 14.52 120.80 13.96Q121.37 13.39 121.37 12.60ZM121.13 5.16L121.13 5.16L121.13 3.72Q121.13 2.95 120.56 2.38Q120.00 1.80 118.99 1.80L118.99 1.80L117.05 1.80L117.05 7.20L118.99 7.20Q120.00 7.20 120.56 6.58Q121.13 5.95 121.13 5.16ZM126.05 15.96L129.58 0.36L132.10 0.36L135.62 15.96L133.94 15.96L133.13 12.36L128.54 12.36L127.73 15.96L126.05 15.96ZM132.79 10.92L130.82 2.23L128.86 10.92L132.79 10.92ZM146.62 12.96L146.62 12.96Q146.62 16.32 142.56 16.32Q138.50 16.32 138.50 12.96L138.50 12.96L138.50 10.92L140.18 10.92L140.18 13.06Q140.18 13.92 140.78 14.40Q141.38 14.88 142.56 14.88Q143.74 14.88 144.34 14.40Q144.94 13.92 144.94 13.09Q144.94 12.26 144.76 11.77Q144.58 11.28 144.02 10.73L144.02 10.73L139.80 6.60Q139.06 5.86 138.78 5.15Q138.50 4.44 138.50 3.36L138.50 3.36Q138.50 1.75 139.50 0.88Q140.50 0 142.51 0L142.51 0Q146.38 0 146.38 3.36L146.38 3.36L146.38 5.40L144.70 5.40L144.70 3.26Q144.70 2.40 144.13 1.92Q143.57 1.44 142.44 1.44Q141.31 1.44 140.75 1.92Q140.18 2.40 140.18 3.24Q140.18 4.08 140.35 4.56Q140.52 5.04 141.10 5.57L141.10 5.57L145.39 9.70Q146.09 10.46 146.35 11.17Q146.62 11.88 146.62 12.96ZM158.02 14.52L158.02 15.96L150.94 15.96L150.94 0.36L157.78 0.36L157.78 1.80L152.62 1.80L152.62 7.32L156.82 7.32L156.82 8.76L152.62 8.76L152.62 14.52L158.02 14.52Z" transform="translate(0, 52)"></path></svg>